<svg xmlns="http://www.w3.org/2000/svg" viewBox="0 0 254.72 326.68"><defs><style>.cls-1{isolation:isolate;}.cls-2{fill:#37474f;}.cls-3{fill:none;stroke:#fafafa;stroke-linecap:round;stroke-linejoin:round;stroke-width:0.5px;}.cls-4{fill:#455a64;}.cls-5{fill:#27debf;}.cls-6{opacity:0.2;}.cls-6,.cls-8,.cls-9{mix-blend-mode:multiply;}.cls-11,.cls-7{opacity:0.5;}.cls-8{opacity:0.3;}.cls-13,.cls-9{opacity:0.15;}.cls-10{fill:#263238;}.cls-11,.cls-12{fill:#fff;}.cls-12{opacity:0.1;}</style></defs><title>mundo</title><g class="cls-1"><g id="Plants"><g id="Plants-2" data-name="Plants"><path class="cls-2" d="M289.22,362.93c-4.83-9-2-19.14,2.16-26.26,4.39-7.56-1.23-12.52-6.92-6.82s-5.47,20.24,1.21,31.61Z" transform="translate(-127.91 -56.91)"/><path class="cls-3" d="M287.57,330.4c-2.56,3.28-7.75,14.11-1.71,29.11" transform="translate(-127.91 -56.91)"/><path class="cls-4" d="M286.76,359.93c-1.41-5.57,2.51-14.8,8.47-18.68,5.36-3.48,8.52-3.24,10.07-1.29s-.87,4.89-5,7.39-10.85,8-11.08,14.32Z" transform="translate(-127.91 -56.91)"/><path class="cls-3" d="M301.87,341.14c-5.72,1.5-13,9.57-14.17,18.35" transform="translate(-127.91 -56.91)"/></g><g id="Plants-3" data-name="Plants"><path class="cls-2" d="M219.88,363.19c4.83-9,2-19.15-2.15-26.27-4.4-7.55,1.23-12.51,6.91-6.81s5.48,20.24-1.21,31.61Z" transform="translate(-127.91 -56.91)"/><path class="cls-3" d="M221.53,330.66c2.56,3.28,7.75,14.11,1.71,29.11" transform="translate(-127.91 -56.91)"/><path class="cls-4" d="M222.34,360.19c1.42-5.57-2.5-14.81-8.46-18.68-5.37-3.49-8.52-3.24-10.08-1.29s.87,4.89,5,7.39,10.84,8,11.07,14.32Z" transform="translate(-127.91 -56.91)"/><path class="cls-3" d="M207.23,341.4c5.72,1.5,13,9.57,14.18,18.35" transform="translate(-127.91 -56.91)"/></g></g><g id="Pins"><g id="Globe-2" data-name="Globe"><path class="cls-5" d="M287.37,370.76a14.26,14.26,0,0,0,.95-1.57c.08-.14.15-.28.22-.43a11.86,11.86,0,0,0,.58-1.38l.16-.43a13.58,13.58,0,0,0,.44-1.75v0a11.9,11.9,0,0,0,.15-1.79c0-.17,0-.35,0-.53a10.36,10.36,0,0,0-.1-1.24c0-.22-.06-.43-.1-.65-.08-.39-.18-.79-.3-1.19-.06-.19-.11-.39-.18-.59a12.48,12.48,0,0,0-.7-1.66c-.09-.18-.2-.34-.3-.52a12.76,12.76,0,0,0-.7-1.16l-.5-.69c-.13-.17-.23-.34-.37-.51L286,354l-.33-.37a41.2,41.2,0,0,0-62.16,0l-.27.3c-.21.25-.42.5-.62.72s-.26.36-.39.54-.32.42-.46.64c-.28.41-.53.83-.77,1.25-.07.15-.17.29-.24.43a13.11,13.11,0,0,0-.72,1.7c-.06.17-.1.35-.15.52a12.43,12.43,0,0,0-.32,1.27c0,.2-.07.39-.1.59-.06.44-.09.88-.11,1.32,0,.16,0,.31,0,.46A12,12,0,0,0,220,367c0,.12.09.25.13.38a13.88,13.88,0,0,0,.62,1.44l.18.38a15.87,15.87,0,0,0,1,1.65.16.16,0,0,0,0,.07,19,19,0,0,0,1.42,1.77l.11.11q.71.76,1.53,1.5l.39.33c.5.43,1,.85,1.6,1.26.14.1.27.21.42.31.71.5,1.46,1,2.28,1.46,13.75,7.95,36.1,7.95,49.85,0,.81-.47,1.55-.95,2.26-1.45.17-.11.31-.23.47-.34.55-.4,1.06-.8,1.55-1.22l.43-.37a20.1,20.1,0,0,0,1.47-1.44l.16-.16a18.39,18.39,0,0,0,1.4-1.74Z" transform="translate(-127.91 -56.91)"/><path class="cls-6" d="M287.37,370.76a14.26,14.26,0,0,0,.95-1.57c.08-.14.15-.28.22-.43a11.86,11.86,0,0,0,.58-1.38l.16-.43a13.58,13.58,0,0,0,.44-1.75v0a11.9,11.9,0,0,0,.15-1.79c0-.17,0-.35,0-.53a10.36,10.36,0,0,0-.1-1.24c0-.22-.06-.43-.1-.65-.08-.39-.18-.79-.3-1.19-.06-.19-.11-.39-.18-.59a12.48,12.48,0,0,0-.7-1.66c-.09-.18-.2-.34-.3-.52a12.76,12.76,0,0,0-.7-1.16l-.5-.69c-.13-.17-.23-.34-.37-.51L286,354l-.33-.37a41.2,41.2,0,0,0-62.16,0l-.27.3c-.21.25-.42.5-.62.72s-.26.36-.39.54-.32.42-.46.64c-.28.41-.53.83-.77,1.25-.07.15-.17.29-.24.43a13.11,13.11,0,0,0-.72,1.7c-.06.17-.1.35-.15.52a12.43,12.43,0,0,0-.32,1.27c0,.2-.07.39-.1.59-.06.44-.09.88-.11,1.32,0,.16,0,.31,0,.46A12,12,0,0,0,220,367c0,.12.09.25.13.38a13.88,13.88,0,0,0,.62,1.44l.18.38a15.87,15.87,0,0,0,1,1.65.16.16,0,0,0,0,.07,19,19,0,0,0,1.42,1.77l.11.11q.71.76,1.53,1.5l.39.33c.5.43,1,.85,1.6,1.26.14.1.27.21.42.31.71.5,1.46,1,2.28,1.46,13.75,7.95,36.1,7.95,49.85,0,.81-.47,1.55-.95,2.26-1.45.17-.11.31-.23.47-.34.55-.4,1.06-.8,1.55-1.22l.43-.37a20.1,20.1,0,0,0,1.47-1.44l.16-.16a18.39,18.39,0,0,0,1.4-1.74Z" transform="translate(-127.91 -56.91)"/><g class="cls-7"><path class="cls-5" d="M260,350.77c-1.5.38,1.46,5.9,4.65,15.7,1.68,5.18,2.58,12.61,11,8.48,7.77-3.81,1.26-12.78-4.76-18.51C265.55,351.34,261.61,350.36,260,350.77Z" transform="translate(-127.91 -56.91)"/><path class="cls-5" d="M261.39,347.39c.79.41,5.66,1.05,13.5,8.37,4.21,3.94,7.5,8.92,9.07,9.56s2.66-6.25,0-9.69a27.43,27.43,0,0,0-12.86-9.14C265.67,344.86,260.08,346.71,261.39,347.39Z" transform="translate(-127.91 -56.91)"/><path class="cls-5" d="M254.61,379.87c-8.09,0-9.46-1.46-6.34-14.51,1.64-6.89,5-13.81,6.34-13.81s4.7,6.92,6.35,13.81C264.08,378.41,262.71,379.87,254.61,379.87Z" transform="translate(-127.91 -56.91)"/><path class="cls-5" d="M249.23,350.77c1.5.38-1.46,5.9-4.65,15.7-1.68,5.18-2.58,12.61-11,8.48-7.77-3.81-1.26-12.78,4.76-18.51C243.68,351.34,247.62,350.36,249.23,350.77Z" transform="translate(-127.91 -56.91)"/><path class="cls-5" d="M247.83,347.39c-.78.41-5.65,1.05-13.49,8.37-4.21,3.94-7.5,8.92-9.07,9.56s-2.66-6.25,0-9.69a27.38,27.38,0,0,1,12.86-9.14C243.56,344.86,249.15,346.71,247.83,347.39Z" transform="translate(-127.91 -56.91)"/></g><path class="cls-5" d="M254.61,309.55a5.56,5.56,0,0,0-2.7.65,2,2,0,0,0-1.09,1.38h0c-.68,16.15-1.94,24-7.1,32.55,0,1.61,1.06,3.22,3.2,4.45a15.65,15.65,0,0,0,7.71,1.85h0a15.66,15.66,0,0,0,7.72-1.85c2.14-1.23,3.2-2.84,3.2-4.45-5.16-8.58-6.42-16.4-7.1-32.55h0a2,2,0,0,0-1.09-1.38A5.57,5.57,0,0,0,254.61,309.55Z" transform="translate(-127.91 -56.91)"/><path class="cls-8" d="M254.61,309.55a5.56,5.56,0,0,0-2.7.65,2,2,0,0,0-1.09,1.38h0c-.68,16.15-1.94,24-7.1,32.55,0,1.61,1.06,3.22,3.2,4.45a15.65,15.65,0,0,0,7.71,1.85h0a15.66,15.66,0,0,0,7.72-1.85c2.14-1.23,3.2-2.84,3.2-4.45-5.16-8.58-6.42-16.4-7.1-32.55h0a2,2,0,0,0-1.09-1.38A5.57,5.57,0,0,0,254.61,309.55Z" transform="translate(-127.91 -56.91)"/><path class="cls-9" d="M258.5,313.22c-2.59.1-5.18.1-7.77,0-.23,5.06-.53,10-1,14.66q4.86-.09,9.71-.58C259,322.83,258.72,318.08,258.5,313.22Z" transform="translate(-127.91 -56.91)"/><path class="cls-9" d="M234.9,372.79c-11.46-7.17-10.65-20-3.05-26.5a41.25,41.25,0,0,0-8.33,7.32l-.27.3c-.21.25-.42.5-.62.72s-.26.36-.39.54-.32.42-.46.64c-.28.41-.53.83-.77,1.25-.07.15-.17.29-.24.43a13.11,13.11,0,0,0-.72,1.7c-.06.17-.1.35-.16.52-.12.43-.23.85-.31,1.27,0,.2-.07.39-.1.59-.06.44-.09.88-.11,1.32,0,.16,0,.31,0,.46A12,12,0,0,0,220,367c0,.12.09.25.13.38a13.88,13.88,0,0,0,.62,1.44l.18.38a15.87,15.87,0,0,0,1,1.65.16.16,0,0,0,0,.07,19,19,0,0,0,1.42,1.77l.11.11q.71.76,1.53,1.5l.39.33c.5.43,1,.85,1.6,1.26.14.1.27.21.42.31.71.5,1.46,1,2.28,1.46,13.75,7.95,36.1,7.95,49.85,0,.81-.47,1.55-.95,2.26-1.45.17-.11.31-.23.47-.34.55-.4,1.06-.8,1.55-1.22l.43-.37a20.1,20.1,0,0,0,1.47-1.44l.16-.16C271.56,382.81,246.37,380,234.9,372.79Z" transform="translate(-127.91 -56.91)"/><path class="cls-2" d="M333.54,269A111.87,111.87,0,0,1,175.33,110.73l-7.22-7.21C117.8,153.83,113,230.63,163.34,280.94s127,45.48,177.36-4.83Z" transform="translate(-127.91 -56.91)"/><path class="cls-10" d="M160.42,111.85l7.3,7.3a113.16,113.16,0,0,1,7.61-8.42l-7.22-7.21Q164.06,107.57,160.42,111.85Z" transform="translate(-127.91 -56.91)"/><path class="cls-10" d="M333.54,269a111.55,111.55,0,0,1-8.35,7.55l7.25,7.25q4.23-3.63,8.26-7.64Z" transform="translate(-127.91 -56.91)"/><path class="cls-4" d="M132.61,200.81c3.23,26.45,12.75,57.16,38.38,79.68,21.84,19.18,55.24,39.54,106.67,32-39.74,10.06-82.36.39-114.32-31.57-48.82-48.82-45.77-122.55.41-172.85C161.85,110.36,126.78,153.12,132.61,200.81Z" transform="translate(-127.91 -56.91)"/><path class="cls-2" d="M344.69,286.38a6.34,6.34,0,0,0,4.49-10.83L168.66,95.16a6.35,6.35,0,0,0-9,9L340.2,284.53A6.37,6.37,0,0,0,344.69,286.38Z" transform="translate(-127.91 -56.91)"/><path class="cls-4" d="M168.66,95.16,349.18,275.55a6.36,6.36,0,0,1,1.45,6.7,6.19,6.19,0,0,1-6.42-1.53L163.69,100.33a6.34,6.34,0,0,1-1.45-6.7A6.32,6.32,0,0,1,168.66,95.16Z" transform="translate(-127.91 -56.91)"/><path class="cls-5" d="M150.74,189.85a103.7,103.7,0,1,0,44.51-85.16A103.69,103.69,0,0,0,150.74,189.85Z" transform="translate(-127.91 -56.91)"/><path class="cls-11" d="M150.74,189.85a103.7,103.7,0,1,0,44.51-85.16A103.69,103.69,0,0,0,150.74,189.85Z" transform="translate(-127.91 -56.91)"/><path class="cls-4" d="M275.81,103.08c-4.44-1.69-10.71-2.39-7.62,1.75s5.61,5.42,4.34,8.68-4.75,5.82-4.63,8.54.77,6.09,2.75,6,8.62-3.39,11.14-2.11,11.27,5.25,13.73,2.85,3.7-1.66,7.13-4.05,5-6.75,2.45-7.81-3.38-.09-7.61-2.15-5.09-5.74-9.64-6.68S279.06,104.32,275.81,103.08Z" transform="translate(-127.91 -56.91)"/><path class="cls-4" d="M259,97.68c-6.06.67-18.19.48-22.52-2.82-2.14-1.65-4.63-3.77-7.48-5.57a104,104,0,0,0-59.74,41.33,34.28,34.28,0,0,0,1.65,8.48c2,6,5.73,8.15,10.19,11s1.86,5,3.09,8.77,1.58,5.86,3.69,8.47-2.72,4-5,6.71-3.32,4.31-3.62,11.53,4.08,14.94,5,18.16-3.44,4.77-4.68,10.23-6.94,19-5.08,28.62,5.16,9.92,6.83,4.59,2-10.88,6.5-13.56,10.2.77,15.1-5.5,6.08-5.4,10.33-6.49,3.61-3.75,8.85-8,8.22-9.06,4.61-13.12-6.7-5-8.44-11.91a53.57,53.57,0,0,0-10.1-19.74c-4.38-5.28-14.75-5.13-17.89-7.58s-2.67-10.1-1.4-12.62-1.09-4.25-3.9-4.64-3.57-2.58-2.91-6.28,7.7-5.88,12.14-4.48,6,4.32,4.59,10.22a11.66,11.66,0,0,0,4.78,12.72c3.58,2.58,2.75-2.55,1.06-6.5s-.85-6.6,3.77-12,9.66-2.82,15.85-7,5.22.44,8.93,2.58,4-.21,6.86-3.21,6.66,2.09,11.94.82-1.49-9.24.65-13,6-2,6.18-8.77,3.28-5.8,5.72-7.38S265,97,259,97.68Zm-11.59,12.07c-2.46,2.39-3.36,1.38-6.77,3.72s-7.45,2.78-9.71,2.18-4.26-5.84-3.5-8.28,4.47-1.77,8.53-.73,8,.68,12.64-.66C252.21,104.91,249.84,107.36,247.38,109.75Z" transform="translate(-127.91 -56.91)"/><path class="cls-4" d="M353.34,221l-.08.28a7.31,7.31,0,0,0-5.34,2.26c-4.33,4.49-3.79,2-10.39,3.56s-5.79,5.25-7,9-8.8,5.53-12.26,5.65-8.1,7.94-8.76,12.37-6.17,4.15-10.62,6.66-8.62,8-11.75,10.2a9.81,9.81,0,0,1-10.64.56c-3.28-2-4.21-9.13-4.09-14.94a31.6,31.6,0,0,1,5-16.71c3.29-5.05,2.63-4.53,4.76-13.62s-2.9-14.07-5.88-16.22-9.23-2.42-11.49-5.32-2.53-5.91-1.21-14.76,6-9.08,10.9-12.18,12.85-5.22,19-4.53,9.32,3.66,12,6.71,2.78,7.45,5.08,8.67,4.87.8,7.1,2.23,3.37,3.25,5.87,3.79,2.1-2.75,2.36-4.38-2-2.09-4.83-3.24-3.21-2.21-3.47-4.48-2.52-1.28-3.57-2.59-2.17,2.25-2.82,3.53-.75-1.48-.75-1.48-1.89,1.36-2.06.32,1.79-2.59,2.46-4.72-2.51-2.84-3.74-5.18-3.73-3.61-6.61-3.78-3.1-1-5.12.82-8.16,1.09-9.79.1,1-4.07,3.79-6.61,5.43-.25,8.63-2.65.74-3.91-.83-5.14-1.44-3.14,2-6.44,5.5-1.2,5.76,1.08,2.12,4.09,4.51,5.07,2.48-.92,3.81-4.4,3.67-4.7,7.34-4.76,9.79-.1,12.57-1.17,5.84,1.58,6.91,4.36,4.94,5.21,9,7.71a3.89,3.89,0,0,0,3.52.22A103.21,103.21,0,0,1,353.34,221Z" transform="translate(-127.91 -56.91)"/><path class="cls-4" d="M316.36,261.11c-2.19-1.34-2.29-.48-4.4.81s-5,2.59-5.37,4.65-1.17,4.51,1,3.74,2.3-2.69,5-2.81S319.63,263.11,316.36,261.11Z" transform="translate(-127.91 -56.91)"/><path class="cls-12" d="M313.66,114.56c-54.22-42.24-82.4-5-60.45,34.32s74.17,70.31,88.63,56S354,146,313.66,114.56Z" transform="translate(-127.91 -56.91)"/><path class="cls-13" d="M209,227.62c-32-58.17-.13-133.47,51.46-141.28h0c-2-.12-4-.2-6-.2a103.69,103.69,0,1,0,73.9,176.41C307.41,275.84,241,285.75,209,227.62Z" transform="translate(-127.91 -56.91)"/></g><path id="Pin" class="cls-5" d="M381.69,147.7A9.55,9.55,0,0,0,369,143.21c-8.17,3.91-11.78,16.23-11.78,16.23s11.86,4.91,20,1A9.56,9.56,0,0,0,381.69,147.7Zm-12.25,5.87a4.62,4.62,0,1,1,6.17,2.17A4.62,4.62,0,0,1,369.44,153.57Z" transform="translate(-127.91 -56.91)"/><path id="Pin-2" data-name="Pin" class="cls-5" d="M223.92,57.07a9.56,9.56,0,0,0-7.63,11.15c1.67,8.91,12.63,15.57,12.63,15.57s7.82-10.18,6.15-19.08A9.56,9.56,0,0,0,223.92,57.07Zm2.5,13.36a4.63,4.63,0,1,1,3.7-5.4A4.63,4.63,0,0,1,226.42,70.43Z" transform="translate(-127.91 -56.91)"/><path id="Pin-3" data-name="Pin" class="cls-4" d="M336.59,81.19a9.55,9.55,0,0,0-13.29,2.4c-5.17,7.44-2.21,19.93-2.21,19.93s12.74-1.59,17.9-9A9.54,9.54,0,0,0,336.59,81.19Zm-7.75,11.16a4.63,4.63,0,1,1,6.44-1.16A4.62,4.62,0,0,1,328.84,92.35Z" transform="translate(-127.91 -56.91)"/></g></g></svg>